<svg xmlns="http://www.w3.org/2000/svg" width="900" height="600" viewBox="0 0 450 300" role="img" aria-labelledby="title desc">
  <title id="title">Sydney Opera House mock recommendation image</title>
  <desc id="desc">Generated Chravel mock card artwork for Sydney Opera House in Sydney.</desc>
  <defs>
    <linearGradient id="g" x1="0" y1="0" x2="1" y2="1">
      <stop offset="0" stop-color="#0E7490"/>
      <stop offset="0.55" stop-color="#111827"/>
      <stop offset="1" stop-color="#020617"/>
    </linearGradient>
    <radialGradient id="glow" cx="75%" cy="20%" r="65%">
      <stop offset="0" stop-color="#E0F2FE" stop-opacity=".58"/>
      <stop offset="1" stop-color="#E0F2FE" stop-opacity="0"/>
    </radialGradient>
  </defs>
  <rect width="450" height="300" fill="url(#g)"/>
  <rect width="450" height="300" fill="url(#glow)"/>
  <g opacity=".36">
    <circle cx="70" cy="58" r="2" fill="#fff"/><circle cx="120" cy="38" r="1.5" fill="#fff"/><circle cx="386" cy="62" r="2" fill="#fff"/><circle cx="335" cy="36" r="1.4" fill="#fff"/>
  </g>
  
        <path d="M78 222 C140 142 178 92 222 198 C260 88 308 142 374 222 Z" fill="rgba(224,242,254,.42)" stroke="#E0F2FE" stroke-width="5"/>
        <path d="M0 236 C80 220 152 250 232 232 C310 216 374 230 450 214 V300 H0Z" fill="rgba(14,116,144,.35)"/>
  <rect x="22" y="24" width="118" height="28" rx="14" fill="rgba(0,0,0,.42)" stroke="#E0F2FE"/>
  <text x="81" y="43" text-anchor="middle" font-size="13" font-family="Inter,Arial" font-weight="800" fill="#E0F2FE">Landmark</text>
  <text x="28" y="265" font-size="24" font-family="Inter,Arial" font-weight="900" fill="#fff">Sydney Opera House</text>
  <text x="29" y="285" font-size="13" font-family="Inter,Arial" font-weight="700" fill="rgba(255,255,255,.72)">Architecture • Sydney</text>
</svg>
